# Blender 4.0.2
# www.blender.org
mtllib cone.mtl
o Cone
v 0.000000 0.000000 -1.000000
v 0.195090 0.000000 -0.980785
v 0.382683 0.000000 -0.923880
v 0.555570 0.000000 -0.831470
v 0.707107 0.000000 -0.707107
v 0.831470 0.000000 -0.555570
v 0.923880 0.000000 -0.382683
v 0.980785 0.000000 -0.195090
v 1.000000 0.000000 0.000000
v 0.980785 0.000000 0.195090
v 0.923880 0.000000 0.382683
v 0.831470 0.000000 0.555570
v 0.707107 0.000000 0.707107
v 0.555570 0.000000 0.831470
v 0.382683 0.000000 0.923880
v 0.195090 0.000000 0.980785
v 0.000000 0.000000 1.000000
v -0.195090 0.000000 0.980785
v -0.382683 0.000000 0.923880
v -0.555570 0.000000 0.831470
v -0.707107 0.000000 0.707107
v -0.831470 0.000000 0.555570
v -0.923880 0.000000 0.382683
v -0.980785 0.000000 0.195090
v -1.000000 0.000000 0.000000
v -0.980785 0.000000 -0.195090
v -0.923880 0.000000 -0.382683
v -0.831470 0.000000 -0.555570
v -0.707107 0.000000 -0.707107
v -0.555570 0.000000 -0.831470
v -0.382683 0.000000 -0.923880
v -0.195090 0.000000 -0.980785
v 0.000000 2.000000 0.000000
vn -0.0000 -0.5033 -0.8641
vn -0.0000 1.0000 -0.0000
vn 0.1686 -0.5033 -0.8475
vn 0.3307 -0.5033 -0.7983
vn 0.4801 -0.5033 -0.7185
vn 0.6110 -0.5033 -0.6110
vn 0.7185 -0.5033 -0.4801
vn 0.7983 -0.5033 -0.3307
vn 0.8475 -0.5033 -0.1686
vn 0.8641 -0.5033 -0.0000
vn 0.8475 -0.5033 0.1686
vn 0.7983 -0.5033 0.3307
vn 0.7185 -0.5033 0.4801
vn 0.6110 -0.5033 0.6110
vn 0.4801 -0.5033 0.7185
vn 0.3307 -0.5033 0.7983
vn 0.1686 -0.5033 0.8475
vn -0.0000 -0.5033 0.8641
vn -0.1686 -0.5033 0.8475
vn -0.3307 -0.5033 0.7983
vn -0.4801 -0.5033 0.7185
vn -0.6110 -0.5033 0.6110
vn -0.7185 -0.5033 0.4801
vn -0.7983 -0.5033 0.3307
vn -0.8475 -0.5033 0.1686
vn -0.8641 -0.5033 -0.0000
vn -0.8475 -0.5033 -0.1686
vn -0.7983 -0.5033 -0.3307
vn -0.7185 -0.5033 -0.4801
vn -0.6110 -0.5033 -0.6110
vn -0.4801 -0.5033 -0.7185
vn -0.3307 -0.5033 -0.7983
vn -0.1686 -0.5033 -0.8475
vt 0.241669 0.439403
vt 0.000000 -0.000000
vt 0.273485 0.417801
vt 0.299141 0.394732
vt 0.299141 0.499351
vt 0.299141 0.000000
vt 0.337592 0.500000
vt 0.378916 0.496022
vt 0.421524 0.487571
vt 0.463778 0.474971
vt 0.504056 0.458707
vt 0.540810 0.439403
vt 0.572626 0.417801
vt 0.598283 0.394732
vt 0.000000 0.999351
vt 0.000000 0.500000
vt 0.038451 1.000000
vt 0.079774 0.996022
vt 0.122382 0.987571
vt 0.164637 0.974971
vt 0.204915 0.958707
vt 0.241668 0.939403
vt 0.273485 0.917801
vt 0.299141 0.894732
vt 0.598283 0.499351
vt 0.598283 0.000000
vt 0.636734 0.500000
vt 0.678057 0.496022
vt 0.720665 0.487571
vt 0.762920 0.474971
vt 0.803198 0.458707
vt 0.839951 0.439403
vt 0.871767 0.417801
vt 0.897424 0.394732
vt 0.000000 0.499351
vt 0.038451 0.500000
vt 0.079774 0.496022
vt 0.122382 0.487571
vt 0.164637 0.474971
vt 0.746829 0.745891
vt 0.738227 0.789137
vt 0.721353 0.829874
vt 0.696856 0.866536
vt 0.665678 0.897715
vt 0.629015 0.922212
vt 0.588278 0.939086
vt 0.545032 0.947688
vt 0.500939 0.947688
vt 0.457692 0.939086
vt 0.416955 0.922212
vt 0.380293 0.897715
vt 0.349114 0.866536
vt 0.324617 0.829874
vt 0.307743 0.789137
vt 0.299141 0.745891
vt 0.299141 0.701797
vt 0.307744 0.658551
vt 0.324617 0.617814
vt 0.349114 0.581152
vt 0.380293 0.549973
vt 0.416956 0.525476
vt 0.457693 0.508602
vt 0.500939 0.500000
vt 0.545032 0.500000
vt 0.588278 0.508602
vt 0.629015 0.525476
vt 0.665678 0.549973
vt 0.696856 0.581152
vt 0.721353 0.617814
vt 0.738227 0.658551
vt 0.746829 0.701797
vt 0.204915 0.458707
s 1
usemtl cone
f 1/1/1 33/2/2 2/3/3
f 2/3/3 33/2/2 3/4/4
f 3/5/4 33/6/2 4/7/5
f 4/7/5 33/6/2 5/8/6
f 5/8/6 33/6/2 6/9/7
f 6/9/7 33/6/2 7/10/8
f 7/10/8 33/6/2 8/11/9
f 8/11/9 33/6/2 9/12/10
f 9/12/10 33/6/2 10/13/11
f 10/13/11 33/6/2 11/14/12
f 11/15/12 33/16/2 12/17/13
f 12/17/13 33/16/2 13/18/14
f 13/18/14 33/16/2 14/19/15
f 14/19/15 33/16/2 15/20/16
f 15/20/16 33/16/2 16/21/17
f 16/21/17 33/16/2 17/22/18
f 17/22/18 33/16/2 18/23/19
f 18/23/19 33/16/2 19/24/20
f 19/25/20 33/26/2 20/27/21
f 20/27/21 33/26/2 21/28/22
f 21/28/22 33/26/2 22/29/23
f 22/29/23 33/26/2 23/30/24
f 23/30/24 33/26/2 24/31/25
f 24/31/25 33/26/2 25/32/26
f 25/32/26 33/26/2 26/33/27
f 26/33/27 33/26/2 27/34/28
f 27/35/28 33/2/2 28/36/29
f 28/36/29 33/2/2 29/37/30
f 29/37/30 33/2/2 30/38/31
f 30/38/31 33/2/2 31/39/32
f 1/40/1 2/41/3 3/42/4 4/43/5 5/44/6 6/45/7 7/46/8 8/47/9 9/48/10 10/49/11 11/50/12 12/51/13 13/52/14 14/53/15 15/54/16 16/55/17 17/56/18 18/57/19 19/58/20 20/59/21 21/60/22 22/61/23 23/62/24 24/63/25 25/64/26 26/65/27 27/66/28 28/67/29 29/68/30 30/69/31 31/70/32 32/71/33
f 31/39/32 33/2/2 32/72/33
f 32/72/33 33/2/2 1/1/1
